<?xml version="1.0" encoding="us-ascii" standalone="no"?><svg xmlns="http://www.w3.org/2000/svg" xmlns:xlink="http://www.w3.org/1999/xlink" contentStyleType="text/css" height="928px" preserveAspectRatio="none" style="width:810px;height:928px;background:#FFFFFF;" version="1.1" viewBox="0 0 810 928" width="810px" zoomAndPan="magnify"><defs/><g><!--class WateringUI--><g id="elem_WateringUI"><rect codeLine="3" fill="#F1F1F1" height="48" id="WateringUI" rx="2.5" ry="2.5" style="stroke:#181818;stroke-width:0.5;" width="101" x="171.39" y="46"/><ellipse cx="186.39" cy="62" fill="#ADD1B2" rx="11" ry="11" style="stroke:#181818;stroke-width:1.0;"/><path d="M188.39,58.5 Q188.5931,58 188.8275,57.75 Q189.0619,57.5 189.3275,57.5 Q189.7963,57.5 190.0931,57.7813 Q190.39,58.0625 190.39,58.7188 L190.39,60.2813 Q190.39,60.9375 190.1088,61.2188 Q189.8275,61.5 189.39,61.5 Q188.9994,61.5 188.7494,61.3281 Q188.4994,61.1563 188.39,60.7031 Q188.3431,60.3906 188.1713,60.2188 Q187.8588,59.8906 187.2963,59.7031 Q186.7338,59.5 186.1713,59.5 Q185.4681,59.5 184.8744,59.7813 Q184.2963,60.0625 183.8431,60.6875 Q183.39,61.3125 183.39,62.1719 L183.39,63.0938 Q183.39,64.125 184.2338,64.8125 Q185.0775,65.5 186.5775,65.5 Q187.4681,65.5 188.0931,65.2969 Q188.4525,65.1875 188.8588,64.8281 Q189.1244,64.625 189.265,64.5625 Q189.4056,64.5 189.5775,64.5 Q189.9056,64.5 190.14,64.7656 Q190.39,65.0156 190.39,65.375 Q190.39,65.7188 190.0463,66.125 Q189.5463,66.7188 188.7494,67.0469 Q187.7025,67.5 186.4213,67.5 Q184.9213,67.5 183.7181,66.9063 Q182.7494,66.4375 182.0619,65.4219 Q181.39,64.4063 181.39,63.2031 L181.39,62.1094 Q181.39,60.8594 181.9838,59.7656 Q182.5931,58.6719 183.64,58.0938 Q184.7025,57.5 185.89,57.5 Q186.6088,57.5 187.2338,57.75 Q187.8588,58 188.39,58.5 Z " fill="#000000"/><text fill="#000000" font-family="sans-serif" font-size="14" lengthAdjust="spacing" textLength="69" x="200.39" y="66.8535">WateringUI</text><line style="stroke:#181818;stroke-width:0.5;" x1="172.39" x2="271.39" y1="78" y2="78"/><line style="stroke:#181818;stroke-width:0.5;" x1="172.39" x2="271.39" y1="86" y2="86"/></g><!--class WateringController--><g id="elem_WateringController"><rect codeLine="5" fill="#F1F1F1" height="126.2031" id="WateringController" rx="2.5" ry="2.5" style="stroke:#181818;stroke-width:0.5;" width="496" x="307.89" y="7"/><ellipse cx="492.14" cy="23" fill="#ADD1B2" rx="11" ry="11" style="stroke:#181818;stroke-width:1.0;"/><path d="M494.14,19.5 Q494.3431,19 494.5775,18.75 Q494.8119,18.5 495.0775,18.5 Q495.5463,18.5 495.8431,18.7813 Q496.14,19.0625 496.14,19.7188 L496.14,21.2813 Q496.14,21.9375 495.8588,22.2188 Q495.5775,22.5 495.14,22.5 Q494.7494,22.5 494.4994,22.3281 Q494.2494,22.1563 494.14,21.7031 Q494.0931,21.3906 493.9213,21.2188 Q493.6088,20.8906 493.0463,20.7031 Q492.4838,20.5 491.9213,20.5 Q491.2181,20.5 490.6244,20.7813 Q490.0463,21.0625 489.5931,21.6875 Q489.14,22.3125 489.14,23.1719 L489.14,24.0938 Q489.14,25.125 489.9838,25.8125 Q490.8275,26.5 492.3275,26.5 Q493.2181,26.5 493.8431,26.2969 Q494.2025,26.1875 494.6088,25.8281 Q494.8744,25.625 495.015,25.5625 Q495.1556,25.5 495.3275,25.5 Q495.6556,25.5 495.89,25.7656 Q496.14,26.0156 496.14,26.375 Q496.14,26.7188 495.7963,27.125 Q495.2963,27.7188 494.4994,28.0469 Q493.4525,28.5 492.1713,28.5 Q490.6713,28.5 489.4681,27.9063 Q488.4994,27.4375 487.8119,26.4219 Q487.14,25.4063 487.14,24.2031 L487.14,23.1094 Q487.14,21.8594 487.7338,20.7656 Q488.3431,19.6719 489.39,19.0938 Q490.4525,18.5 491.64,18.5 Q492.3588,18.5 492.9838,18.75 Q493.6088,19 494.14,19.5 Z " fill="#000000"/><text fill="#000000" font-family="sans-serif" font-size="14" lengthAdjust="spacing" textLength="119" x="512.64" y="27.8535">WateringController</text><line style="stroke:#181818;stroke-width:0.5;" x1="308.89" x2="802.89" y1="39" y2="39"/><line style="stroke:#181818;stroke-width:0.5;" x1="308.89" x2="802.89" y1="47" y2="47"/><rect fill="#F24D5C" height="6" style="stroke:#C82930;stroke-width:1.0;" width="6" x="315.89" y="57.3203"/><text fill="#000000" font-family="sans-serif" font-size="14" lengthAdjust="spacing" textLength="120" x="327.89" y="63.6738">readFile (fileName)</text><rect fill="#F24D5C" height="6" style="stroke:#C82930;stroke-width:1.0;" width="6" x="315.89" y="72.9609"/><text fill="#000000" font-family="sans-serif" font-size="14" lengthAdjust="spacing" textLength="312" x="327.89" y="79.3145">createWateringPlan (wateringHours, wateringList)</text><rect fill="#F24D5C" height="6" style="stroke:#C82930;stroke-width:1.0;" width="6" x="315.89" y="88.6016"/><text fill="#000000" font-family="sans-serif" font-size="14" lengthAdjust="spacing" textLength="426" x="327.89" y="94.9551">verifyThatIsWatering (wateringPlan, year, month, day, hour, minute)</text><rect fill="#F24D5C" height="6" style="stroke:#C82930;stroke-width:1.0;" width="6" x="315.89" y="104.2422"/><text fill="#000000" font-family="sans-serif" font-size="14" lengthAdjust="spacing" textLength="237" x="327.89" y="110.5957">generateWateringPlan (wateringPlan)</text><rect fill="#F24D5C" height="6" style="stroke:#C82930;stroke-width:1.0;" width="6" x="315.89" y="119.8828"/><text fill="#000000" font-family="sans-serif" font-size="14" lengthAdjust="spacing" textLength="470" x="327.89" y="126.2363">readWateringPlanGeneratedFileAndCheckIfWateringConcluded (fileName)</text></g><!--class WateringPlanRepository--><g id="elem_WateringPlanRepository"><rect codeLine="13" fill="#F1F1F1" height="79.2813" id="WateringPlanRepository" rx="2.5" ry="2.5" style="stroke:#181818;stroke-width:0.5;" width="457" x="45.39" y="193"/><ellipse cx="193.14" cy="209" fill="#ADD1B2" rx="11" ry="11" style="stroke:#181818;stroke-width:1.0;"/><path d="M195.14,205.5 Q195.3431,205 195.5775,204.75 Q195.8119,204.5 196.0775,204.5 Q196.5463,204.5 196.8431,204.7813 Q197.14,205.0625 197.14,205.7188 L197.14,207.2813 Q197.14,207.9375 196.8588,208.2188 Q196.5775,208.5 196.14,208.5 Q195.7494,208.5 195.4994,208.3281 Q195.2494,208.1563 195.14,207.7031 Q195.0931,207.3906 194.9213,207.2188 Q194.6088,206.8906 194.0463,206.7031 Q193.4838,206.5 192.9213,206.5 Q192.2181,206.5 191.6244,206.7813 Q191.0463,207.0625 190.5931,207.6875 Q190.14,208.3125 190.14,209.1719 L190.14,210.0938 Q190.14,211.125 190.9838,211.8125 Q191.8275,212.5 193.3275,212.5 Q194.2181,212.5 194.8431,212.2969 Q195.2025,212.1875 195.6088,211.8281 Q195.8744,211.625 196.015,211.5625 Q196.1556,211.5 196.3275,211.5 Q196.6556,211.5 196.89,211.7656 Q197.14,212.0156 197.14,212.375 Q197.14,212.7188 196.7963,213.125 Q196.2963,213.7188 195.4994,214.0469 Q194.4525,214.5 193.1713,214.5 Q191.6713,214.5 190.4681,213.9063 Q189.4994,213.4375 188.8119,212.4219 Q188.14,211.4063 188.14,210.2031 L188.14,209.1094 Q188.14,207.8594 188.7338,206.7656 Q189.3431,205.6719 190.39,205.0938 Q191.4525,204.5 192.64,204.5 Q193.3588,204.5 193.9838,204.75 Q194.6088,205 195.14,205.5 Z " fill="#000000"/><text fill="#000000" font-family="sans-serif" font-size="14" lengthAdjust="spacing" textLength="153" x="213.64" y="213.8535">WateringPlanRepository</text><line style="stroke:#181818;stroke-width:0.5;" x1="46.39" x2="501.39" y1="225" y2="225"/><line style="stroke:#181818;stroke-width:0.5;" x1="46.39" x2="501.39" y1="233" y2="233"/><rect fill="#F24D5C" height="6" style="stroke:#C82930;stroke-width:1.0;" width="6" x="53.39" y="243.3203"/><text fill="#000000" font-family="sans-serif" font-size="14" lengthAdjust="spacing" textLength="141" x="65.39" y="249.6738">getWateringPlanList ()</text><rect fill="#F24D5C" height="6" style="stroke:#C82930;stroke-width:1.0;" width="6" x="53.39" y="258.9609"/><text fill="#000000" font-family="sans-serif" font-size="14" lengthAdjust="spacing" textLength="431" x="65.39" y="265.3145">createWateringPlan (wateringHours, wateringList, wateringCalendar)</text></g><!--class WateringPlan--><g id="elem_WateringPlan"><rect codeLine="18" fill="#F1F1F1" height="79.2813" id="WateringPlan" rx="2.5" ry="2.5" style="stroke:#181818;stroke-width:0.5;" width="417" x="67.39" y="332"/><ellipse cx="229.14" cy="348" fill="#ADD1B2" rx="11" ry="11" style="stroke:#181818;stroke-width:1.0;"/><path d="M231.14,344.5 Q231.3431,344 231.5775,343.75 Q231.8119,343.5 232.0775,343.5 Q232.5463,343.5 232.8431,343.7813 Q233.14,344.0625 233.14,344.7188 L233.14,346.2813 Q233.14,346.9375 232.8588,347.2188 Q232.5775,347.5 232.14,347.5 Q231.7494,347.5 231.4994,347.3281 Q231.2494,347.1563 231.14,346.7031 Q231.0931,346.3906 230.9213,346.2188 Q230.6088,345.8906 230.0463,345.7031 Q229.4838,345.5 228.9213,345.5 Q228.2181,345.5 227.6244,345.7813 Q227.0463,346.0625 226.5931,346.6875 Q226.14,347.3125 226.14,348.1719 L226.14,349.0938 Q226.14,350.125 226.9838,350.8125 Q227.8275,351.5 229.3275,351.5 Q230.2181,351.5 230.8431,351.2969 Q231.2025,351.1875 231.6088,350.8281 Q231.8744,350.625 232.015,350.5625 Q232.1556,350.5 232.3275,350.5 Q232.6556,350.5 232.89,350.7656 Q233.14,351.0156 233.14,351.375 Q233.14,351.7188 232.7963,352.125 Q232.2963,352.7188 231.4994,353.0469 Q230.4525,353.5 229.1713,353.5 Q227.6713,353.5 226.4681,352.9063 Q225.4994,352.4375 224.8119,351.4219 Q224.14,350.4063 224.14,349.2031 L224.14,348.1094 Q224.14,346.8594 224.7338,345.7656 Q225.3431,344.6719 226.39,344.0938 Q227.4525,343.5 228.64,343.5 Q229.3588,343.5 229.9838,343.75 Q230.6088,344 231.14,344.5 Z " fill="#000000"/><text fill="#000000" font-family="sans-serif" font-size="14" lengthAdjust="spacing" textLength="85" x="249.64" y="352.8535">WateringPlan</text><line style="stroke:#181818;stroke-width:0.5;" x1="68.39" x2="483.39" y1="364" y2="364"/><rect fill="none" height="6" style="stroke:#C82930;stroke-width:1.0;" width="6" x="75.39" y="374.3203"/><text fill="#000000" font-family="sans-serif" font-size="14" lengthAdjust="spacing" textLength="169" x="87.39" y="380.6738">List&lt;String&gt; wateringHours</text><line style="stroke:#181818;stroke-width:0.5;" x1="68.39" x2="483.39" y1="387.6406" y2="387.6406"/><rect fill="#F24D5C" height="6" style="stroke:#C82930;stroke-width:1.0;" width="6" x="75.39" y="397.9609"/><text fill="#000000" font-family="sans-serif" font-size="14" lengthAdjust="spacing" textLength="391" x="87.39" y="404.3145">WateringPlan (wateringHours, wateringList, wateringCalendar)</text></g><!--class Watering--><g id="elem_Watering"><rect codeLine="23" fill="#F1F1F1" height="94.9219" id="Watering" rx="2.5" ry="2.5" style="stroke:#181818;stroke-width:0.5;" width="514" x="130.89" y="687"/><ellipse cx="355.14" cy="703" fill="#ADD1B2" rx="11" ry="11" style="stroke:#181818;stroke-width:1.0;"/><path d="M357.14,699.5 Q357.3431,699 357.5775,698.75 Q357.8119,698.5 358.0775,698.5 Q358.5463,698.5 358.8431,698.7813 Q359.14,699.0625 359.14,699.7188 L359.14,701.2813 Q359.14,701.9375 358.8588,702.2188 Q358.5775,702.5 358.14,702.5 Q357.7494,702.5 357.4994,702.3281 Q357.2494,702.1563 357.14,701.7031 Q357.0931,701.3906 356.9213,701.2188 Q356.6088,700.8906 356.0463,700.7031 Q355.4838,700.5 354.9213,700.5 Q354.2181,700.5 353.6244,700.7813 Q353.0463,701.0625 352.5931,701.6875 Q352.14,702.3125 352.14,703.1719 L352.14,704.0938 Q352.14,705.125 352.9838,705.8125 Q353.8275,706.5 355.3275,706.5 Q356.2181,706.5 356.8431,706.2969 Q357.2025,706.1875 357.6088,705.8281 Q357.8744,705.625 358.015,705.5625 Q358.1556,705.5 358.3275,705.5 Q358.6556,705.5 358.89,705.7656 Q359.14,706.0156 359.14,706.375 Q359.14,706.7188 358.7963,707.125 Q358.2963,707.7188 357.4994,708.0469 Q356.4525,708.5 355.1713,708.5 Q353.6713,708.5 352.4681,707.9063 Q351.4994,707.4375 350.8119,706.4219 Q350.14,705.4063 350.14,704.2031 L350.14,703.1094 Q350.14,701.8594 350.7338,700.7656 Q351.3431,699.6719 352.39,699.0938 Q353.4525,698.5 354.64,698.5 Q355.3588,698.5 355.9838,698.75 Q356.6088,699 357.14,699.5 Z " fill="#000000"/><text fill="#000000" font-family="sans-serif" font-size="14" lengthAdjust="spacing" textLength="57" x="375.64" y="707.8535">Watering</text><line style="stroke:#181818;stroke-width:0.5;" x1="131.89" x2="643.89" y1="719" y2="719"/><rect fill="none" height="6" style="stroke:#C82930;stroke-width:1.0;" width="6" x="138.89" y="729.3203"/><text fill="#000000" font-family="sans-serif" font-size="14" lengthAdjust="spacing" textLength="218" x="150.89" y="735.6738">Character agriculturalPartialSector</text><rect fill="none" height="6" style="stroke:#C82930;stroke-width:1.0;" width="6" x="138.89" y="744.9609"/><text fill="#000000" font-family="sans-serif" font-size="14" lengthAdjust="spacing" textLength="150" x="150.89" y="751.3145">Integer wateringMinutes</text><line style="stroke:#181818;stroke-width:0.5;" x1="131.89" x2="643.89" y1="758.2813" y2="758.2813"/><rect fill="#F24D5C" height="6" style="stroke:#C82930;stroke-width:1.0;" width="6" x="138.89" y="768.6016"/><text fill="#000000" font-family="sans-serif" font-size="14" lengthAdjust="spacing" textLength="488" x="150.89" y="774.9551">Watering (agriculturalPartialSector, wateringMinutes, wateringTimeRegularity)</text></g><!--class DateInterval--><g id="elem_DateInterval"><rect codeLine="29" fill="#F1F1F1" height="94.9219" id="DateInterval" rx="2.5" ry="2.5" style="stroke:#181818;stroke-width:0.5;" width="236" x="336.89" y="532"/><ellipse cx="412.64" cy="548" fill="#ADD1B2" rx="11" ry="11" style="stroke:#181818;stroke-width:1.0;"/><path d="M414.64,544.5 Q414.8431,544 415.0775,543.75 Q415.3119,543.5 415.5775,543.5 Q416.0463,543.5 416.3431,543.7813 Q416.64,544.0625 416.64,544.7188 L416.64,546.2813 Q416.64,546.9375 416.3588,547.2188 Q416.0775,547.5 415.64,547.5 Q415.2494,547.5 414.9994,547.3281 Q414.7494,547.1563 414.64,546.7031 Q414.5931,546.3906 414.4213,546.2188 Q414.1088,545.8906 413.5463,545.7031 Q412.9838,545.5 412.4213,545.5 Q411.7181,545.5 411.1244,545.7813 Q410.5463,546.0625 410.0931,546.6875 Q409.64,547.3125 409.64,548.1719 L409.64,549.0938 Q409.64,550.125 410.4838,550.8125 Q411.3275,551.5 412.8275,551.5 Q413.7181,551.5 414.3431,551.2969 Q414.7025,551.1875 415.1088,550.8281 Q415.3744,550.625 415.515,550.5625 Q415.6556,550.5 415.8275,550.5 Q416.1556,550.5 416.39,550.7656 Q416.64,551.0156 416.64,551.375 Q416.64,551.7188 416.2963,552.125 Q415.7963,552.7188 414.9994,553.0469 Q413.9525,553.5 412.6713,553.5 Q411.1713,553.5 409.9681,552.9063 Q408.9994,552.4375 408.3119,551.4219 Q407.64,550.4063 407.64,549.2031 L407.64,548.1094 Q407.64,546.8594 408.2338,545.7656 Q408.8431,544.6719 409.89,544.0938 Q410.9525,543.5 412.14,543.5 Q412.8588,543.5 413.4838,543.75 Q414.1088,544 414.64,544.5 Z " fill="#000000"/><text fill="#000000" font-family="sans-serif" font-size="14" lengthAdjust="spacing" textLength="76" x="433.14" y="552.8535">DateInterval</text><line style="stroke:#181818;stroke-width:0.5;" x1="337.89" x2="571.89" y1="564" y2="564"/><rect fill="none" height="6" style="stroke:#C82930;stroke-width:1.0;" width="6" x="344.89" y="574.3203"/><text fill="#000000" font-family="sans-serif" font-size="14" lengthAdjust="spacing" textLength="92" x="356.89" y="580.6738">Date startDate</text><rect fill="none" height="6" style="stroke:#C82930;stroke-width:1.0;" width="6" x="344.89" y="589.9609"/><text fill="#000000" font-family="sans-serif" font-size="14" lengthAdjust="spacing" textLength="88" x="356.89" y="596.3145">Date endDate</text><line style="stroke:#181818;stroke-width:0.5;" x1="337.89" x2="571.89" y1="603.2813" y2="603.2813"/><rect fill="#F24D5C" height="6" style="stroke:#C82930;stroke-width:1.0;" width="6" x="344.89" y="613.6016"/><text fill="#000000" font-family="sans-serif" font-size="14" lengthAdjust="spacing" textLength="210" x="356.89" y="619.9551">DateInterval (startDate, endDate)</text></g><!--class WateringTimeRegularity--><g id="elem_WateringTimeRegularity"><rect codeLine="35" fill="#F1F1F1" height="79.2813" id="WateringTimeRegularity" rx="2.5" ry="2.5" style="stroke:#181818;stroke-width:0.5;" width="309" x="388.39" y="842"/><ellipse cx="462.64" cy="858" fill="#ADD1B2" rx="11" ry="11" style="stroke:#181818;stroke-width:1.0;"/><path d="M464.64,854.5 Q464.8431,854 465.0775,853.75 Q465.3119,853.5 465.5775,853.5 Q466.0463,853.5 466.3431,853.7813 Q466.64,854.0625 466.64,854.7188 L466.64,856.2813 Q466.64,856.9375 466.3588,857.2188 Q466.0775,857.5 465.64,857.5 Q465.2494,857.5 464.9994,857.3281 Q464.7494,857.1563 464.64,856.7031 Q464.5931,856.3906 464.4213,856.2188 Q464.1088,855.8906 463.5463,855.7031 Q462.9838,855.5 462.4213,855.5 Q461.7181,855.5 461.1244,855.7813 Q460.5463,856.0625 460.0931,856.6875 Q459.64,857.3125 459.64,858.1719 L459.64,859.0938 Q459.64,860.125 460.4838,860.8125 Q461.3275,861.5 462.8275,861.5 Q463.7181,861.5 464.3431,861.2969 Q464.7025,861.1875 465.1088,860.8281 Q465.3744,860.625 465.515,860.5625 Q465.6556,860.5 465.8275,860.5 Q466.1556,860.5 466.39,860.7656 Q466.64,861.0156 466.64,861.375 Q466.64,861.7188 466.2963,862.125 Q465.7963,862.7188 464.9994,863.0469 Q463.9525,863.5 462.6713,863.5 Q461.1713,863.5 459.9681,862.9063 Q458.9994,862.4375 458.3119,861.4219 Q457.64,860.4063 457.64,859.2031 L457.64,858.1094 Q457.64,856.8594 458.2338,855.7656 Q458.8431,854.6719 459.89,854.0938 Q460.9525,853.5 462.14,853.5 Q462.8588,853.5 463.4838,853.75 Q464.1088,854 464.64,854.5 Z " fill="#000000"/><text fill="#000000" font-family="sans-serif" font-size="14" lengthAdjust="spacing" textLength="152" x="483.14" y="862.8535">WateringTimeRegularity</text><line style="stroke:#181818;stroke-width:0.5;" x1="389.39" x2="696.39" y1="874" y2="874"/><rect fill="none" height="6" style="stroke:#C82930;stroke-width:1.0;" width="6" x="396.39" y="884.3203"/><text fill="#000000" font-family="sans-serif" font-size="14" lengthAdjust="spacing" textLength="158" x="408.39" y="890.6738">String wateringRegularity</text><line style="stroke:#181818;stroke-width:0.5;" x1="389.39" x2="696.39" y1="897.6406" y2="897.6406"/><rect fill="#F24D5C" height="6" style="stroke:#C82930;stroke-width:1.0;" width="6" x="396.39" y="907.9609"/><text fill="#000000" font-family="sans-serif" font-size="14" lengthAdjust="spacing" textLength="283" x="408.39" y="914.3145">WateringTimeRegularity (wateringRegularity)</text></g><!--link WateringUI to WateringController--><g id="link_WateringUI_WateringController"><path codeLine="40" d="M272.44,70 C282.5,70 292.56,70 302.61,70 " fill="none" id="WateringUI-to-WateringController" style="stroke:#181818;stroke-width:1.0;"/><polygon fill="#181818" points="307.87,70,298.87,66,302.87,70,298.87,74,307.87,70" style="stroke:#181818;stroke-width:1.0;"/></g><!--link WateringController to WateringPlanRepository--><g id="link_WateringController_WateringPlanRepository"><path codeLine="41" d="M446.86,133.05 C413.18,152.22 376.93,172.86 346.35,190.25 " fill="none" id="WateringController-to-WateringPlanRepository" style="stroke:#181818;stroke-width:1.0;"/><polygon fill="#181818" points="341.89,192.8,351.6919,191.8389,346.2391,190.3331,347.7449,184.8804,341.89,192.8" style="stroke:#181818;stroke-width:1.0;"/></g><!--link WateringPlanRepository to WateringPlan--><g id="link_WateringPlanRepository_WateringPlan"><path codeLine="42" d="M274.45,272.03 C274.7,288.95 274.99,308.92 275.24,326.44 " fill="none" id="WateringPlanRepository-to-WateringPlan" style="stroke:#181818;stroke-width:1.0;"/><polygon fill="#181818" points="275.32,331.79,279.191,322.7338,275.2486,326.7905,271.1918,322.8481,275.32,331.79" style="stroke:#181818;stroke-width:1.0;"/></g><!--link WateringPlan to Watering--><g id="link_WateringPlan_Watering"><path codeLine="43" d="M277.83,411.28 C281.44,462.3 291.61,554.04 319.89,627 C327.34,646.23 338.49,665.71 349.62,682.65 " fill="none" id="WateringPlan-to-Watering" style="stroke:#181818;stroke-width:1.0;"/><polygon fill="#181818" points="352.45,686.9,350.8244,677.1862,349.693,682.7288,344.1504,681.5974,352.45,686.9" style="stroke:#181818;stroke-width:1.0;"/></g><!--link WateringPlan to DateInterval--><g id="link_WateringPlan_DateInterval"><path codeLine="44" d="M309.55,411.25 C338.28,444.31 379.79,492.07 411.09,528.1 " fill="none" id="WateringPlan-to-DateInterval" style="stroke:#181818;stroke-width:1.0;"/><polygon fill="#181818" points="414.47,531.99,411.5916,522.5711,411.1926,528.2139,405.5499,527.8149,414.47,531.99" style="stroke:#181818;stroke-width:1.0;"/></g><!--link Watering to WateringTimeRegularity--><g id="link_Watering_WateringTimeRegularity"><path codeLine="45" d="M437.78,782.18 C457.11,800.26 479.08,820.81 497.92,838.43 " fill="none" id="Watering-to-WateringTimeRegularity" style="stroke:#181818;stroke-width:1.0;"/><polygon fill="#181818" points="501.64,841.91,497.791,832.8444,497.9852,838.4979,492.3317,838.6921,501.64,841.91" style="stroke:#181818;stroke-width:1.0;"/></g><!--link WateringController to WateringPlan--><g id="link_WateringController_WateringPlan"><path codeLine="46" d="M307.75,128.87 C301.74,130.26 295.78,131.64 289.89,133 C173.49,159.89 102.33,99.58 27.89,193 C6,220.46 8.17,242.95 27.89,272 C44.86,297 69.28,315.66 96.26,329.58 " fill="none" id="WateringController-to-WateringPlan" style="stroke:#181818;stroke-width:1.0;stroke-dasharray:7.0,7.0;"/><polygon fill="#181818" points="100.96,331.95,94.7185,324.3314,96.4936,329.7025,91.1225,331.4776,100.96,331.95" style="stroke:#181818;stroke-width:1.0;"/></g><!--link WateringController to Watering--><g id="link_WateringController_Watering"><path codeLine="47" d="M579.53,133.09 C600.18,192.96 626.89,286.6 626.89,370.5 C626.89,370.5 626.89,370.5 626.89,472 C626.89,542.72 634.13,571.04 590.89,627 C572.65,650.59 547.71,669.5 521.54,684.44 " fill="none" id="WateringController-to-Watering" style="stroke:#181818;stroke-width:1.0;stroke-dasharray:7.0,7.0;"/><polygon fill="#181818" points="516.99,686.99,526.7965,686.0777,521.3513,684.5448,522.8842,679.0996,516.99,686.99" style="stroke:#181818;stroke-width:1.0;"/></g><!--link WateringController to DateInterval--><g id="link_WateringController_DateInterval"><path codeLine="48" d="M548.22,133.14 C539.26,201.61 522.94,314.81 501.89,411 C493.3,450.21 480.96,493.85 471.08,526.75 " fill="none" id="WateringController-to-DateInterval" style="stroke:#181818;stroke-width:1.0;stroke-dasharray:7.0,7.0;"/><polygon fill="#181818" points="469.52,531.94,475.9477,524.4777,470.9633,527.1528,468.2882,522.1685,469.52,531.94" style="stroke:#181818;stroke-width:1.0;"/></g><!--link WateringController to WateringTimeRegularity--><g id="link_WateringController_WateringTimeRegularity"><path codeLine="49" d="M605.35,133.26 C646.33,191.21 697.89,281.74 697.89,370.5 C697.89,370.5 697.89,370.5 697.89,580.5 C697.89,671.4 708.66,703.47 662.89,782 C650.14,803.87 630.6,822.94 610.97,838.33 " fill="none" id="WateringController-to-WateringTimeRegularity" style="stroke:#181818;stroke-width:1.0;stroke-dasharray:7.0,7.0;"/><polygon fill="#181818" points="606.51,841.76,616.0829,839.4448,610.4737,838.7121,611.2063,833.1029,606.51,841.76" style="stroke:#181818;stroke-width:1.0;"/></g><!--SRC=[hLF1JeD04Btp5NCJ4sZlnZGnDMeJDSPgF4zW2XiNQ9P1Gvh-kxkLXMKB5oC7mhnvR-RDB7kHC-_hg-LoBx7aff2Bf2gMYSIwZbE1cS8Y24uXV22J4cNslZa4HmzRLoMhIafIS0X0Fp4emlHEI89mfz_FMD1bbqbqYibANtHZ2B-xwA5gL1s13Hz5pLRsfP5T-vOZRseh7eIcJ0GjeOgWq6xo259i8yXrGOs8ik7UG4ObgLaB9hfqXd1PzvtoDDbDcQvpIZutEsSDYMnIIjsXZ_u2JQ5NsbUru4grXzuKkmGpEOH_NDaGhL5IcQAQiM6R6z7rbWsyWb7XZl2_hMtRTOuA4us1_jD4qaXk5CeNL2nGRYdH- -cOcv8fqpnR_EbqeBux26VhHBvq0Dv4GQ-KDHALuDQnUwi9fh7wGcaj6mngrgNDbmlgOJt8QY7i1P6bJMnbxAE_IB_7qhiT6DxmdZmy5vnw3jSOujN41GucxhH37F-ymJGCiQSOyNJMpP_bLgFbzUbHqV6mavxZnOo7ET8iOTBEN1NFsGy0]--></g></svg>